<svg xmlns="http://www.w3.org/2000/svg" width="24" height="24" viewBox="0 0 24 24"><g class="nc-icon-wrapper" stroke-linecap="square" stroke-linejoin="miter" stroke-width="2" fill="#ffffff" stroke="#ffffff"><path data-cap="butt" fill="none" stroke="#ffffff" stroke-miterlimit="10" d="M11,13 c-2.824,0-5.329,0.638-6.975,1.193C2.81,14.604,2,15.749,2,17.032V21c0,0,9.958,0,10,0" stroke-linecap="butt"/> <path fill="none" stroke="#ffffff" stroke-miterlimit="10" d="M11,13L11,13 c-2.761,0-5-3.239-5-6V6c0-2.761,2.239-5,5-5h0c2.761,0,5,2.239,5,5v1C16,9.761,13.761,13,11,13z"/> <line data-cap="butt" data-color="color-2" fill="none" stroke-miterlimit="10" x1="23" y1="23" x2="20.121" y2="20.121" stroke-linecap="butt"/> <circle data-color="color-2" fill="none" stroke-miterlimit="10" cx="18" cy="18" r="3"/></g></svg>